<svg width="55" height="55" viewBox="0 0 55 55" fill="none" xmlns="http://www.w3.org/2000/svg">
<circle cx="27.2609" cy="27.2624" r="19.0207" fill="#FFC90B"/>
<path d="M27.26 0.129395L23.3652 5.47024H31.1554L27.26 0.129395Z" fill="#FFC90B"/>
<path d="M46.4464 8.07631L39.9158 9.09881L45.4243 14.6073L46.4464 8.07631Z" fill="#FFC90B"/>
<path d="M54.3936 27.262L49.0527 23.3672L49.0527 31.1574L54.3936 27.262Z" fill="#FFC90B"/>
<path d="M46.4471 46.4479L45.4246 39.9173L39.9161 45.4258L46.4471 46.4479Z" fill="#FFC90B"/>
<path d="M27.2614 54.395L31.1563 49.0542L23.3661 49.0542L27.2614 54.395Z" fill="#FFC90B"/>
<path d="M8.07506 46.4481L14.6056 45.4256L9.09717 39.9171L8.07506 46.4481Z" fill="#FFC90B"/>
<path d="M0.12793 27.2624L5.46877 31.1572L5.46877 23.3671L0.12793 27.2624Z" fill="#FFC90B"/>
<path d="M8.07435 8.07652L9.09686 14.6071L14.6053 9.09863L8.07435 8.07652Z" fill="#FFC90B"/>
</svg>
