<svg width="72" height="55" viewBox="0 0 72 55" fill="none" xmlns="http://www.w3.org/2000/svg">
<path fill-rule="evenodd" clip-rule="evenodd" d="M52.4753 54.204H28.1631V54.2016C28.0321 54.2035 27.9009 54.2044 27.7694 54.2044C12.8578 54.2044 0.769531 42.1161 0.769531 27.2045C0.769531 12.2929 12.8578 0.20459 27.7694 0.20459C38.5017 0.20459 47.7714 6.46632 52.1245 15.5357C52.29 15.5315 52.4561 15.5294 52.6226 15.5294C63.3025 15.5294 71.9602 24.1871 71.9602 34.867C71.9602 45.2539 63.7709 53.7281 53.4967 54.1852V54.204H52.7699C52.7208 54.2044 52.6717 54.2046 52.6226 54.2046C52.5734 54.2046 52.5243 54.2044 52.4753 54.204Z" fill="#C4C4C4"/>
</svg>
