<svg width="50" height="54" viewBox="0 0 50 54" fill="none" xmlns="http://www.w3.org/2000/svg">
<circle cx="24.9664" cy="18.5734" r="18.3688" fill="#FFC90B"/>
<path fill-rule="evenodd" clip-rule="evenodd" d="M9.36294 16.1016C8.43641 16.2151 6.26893 16.7817 4.54585 17.3611C2.12533 18.1747 1.34143 18.5604 1.09913 19.0569C0.68667 19.9024 0.916029 20.6888 1.73131 21.223C2.35083 21.6288 2.59093 21.5897 5.61802 20.5897C8.48129 19.6436 9.13881 19.5252 11.4602 19.539C14.2045 19.555 14.2345 19.563 18.7567 21.489C21.2202 22.538 21.2568 22.5443 24.9519 22.5443C28.647 22.5443 28.6836 22.538 31.1471 21.489C35.6693 19.563 35.6993 19.555 38.4436 19.539C40.765 19.5252 41.4225 19.6436 44.2858 20.5897C47.3129 21.5897 47.553 21.6288 48.1725 21.223C49.6712 20.2408 49.1712 18.6832 47.1122 17.9183C40.1628 15.3367 35.6833 15.3673 30.3993 18.0321C26.9333 19.7799 23.1454 19.7356 19.1656 17.9013C15.5163 16.2192 12.672 15.6969 9.36294 16.1016ZM8.01845 26.6552C6.05306 27.1505 2.01602 28.4311 1.65807 28.6726C0.97743 29.1321 0.708422 30.0606 1.04324 30.7955C1.55344 31.9153 2.37286 31.9214 6.03241 30.8324C11.1199 29.3186 13.5294 29.4323 17.6964 31.3831C22.6327 33.6943 27.2615 33.699 32.1769 31.3977C36.4234 29.4094 38.7435 29.294 43.8384 30.8178C47.5679 31.9329 48.5112 31.9296 48.7945 30.8004C49.0313 29.8574 48.7323 28.8384 48.1519 28.609C47.8853 28.5035 46.3046 27.9702 44.6388 27.4231C41.8532 26.5087 41.3559 26.4297 38.4436 26.441C35.0101 26.4542 34.3997 26.6007 30.4587 28.3562C28.4377 29.2566 27.7764 29.4146 25.6111 29.5132C22.7803 29.6426 20.9647 29.2365 18.254 27.8683C15.3048 26.3796 11.0932 25.8804 8.01845 26.6552ZM9.80816 36.7566C6.9325 36.9975 1.52811 38.8286 1.09913 39.7074C0.68667 40.553 0.916029 41.3394 1.73131 41.8735C2.35028 42.2791 2.59396 42.2411 5.61802 41.2675C10.6824 39.637 13.5098 39.6736 17.0014 41.4154C19.7689 42.7957 21.995 43.3326 24.9519 43.3326C27.9088 43.3326 30.1349 42.7957 32.9024 41.4154C36.394 39.6736 39.2214 39.637 44.2858 41.2675C47.3099 42.2411 47.5535 42.2791 48.1725 41.8735C48.9878 41.3394 49.2171 40.553 48.8047 39.7074C48.5632 39.2129 47.7614 38.8151 45.3258 37.9811C42.5652 37.0358 41.7689 36.8827 39.0948 36.7822C35.6313 36.652 34.2359 36.948 30.8615 38.5276C26.857 40.4027 23.1644 40.4338 19.232 38.6259C15.3392 36.8362 13.4157 36.4548 9.80816 36.7566ZM8.01845 47.3055C5.27633 47.996 1.77729 49.2001 1.39182 49.5856C0.868119 50.1093 0.88932 51.4455 1.42981 51.9863C2.04823 52.6044 2.59285 52.5394 6.13484 51.4237C9.05703 50.5036 9.494 50.4375 11.9602 50.5432C14.389 50.6476 14.859 50.7632 17.2338 51.8406C21.4176 53.7388 24.5763 54.1865 28.2645 53.4048C29.2536 53.195 31.236 52.4912 32.67 51.8406C35.0429 50.764 35.5162 50.6476 37.9348 50.5438C40.4018 50.4377 40.8292 50.5036 43.8965 51.4609C47.542 52.5986 48.507 52.5967 48.7945 51.451C49.0641 50.3772 48.7094 49.4886 47.8776 49.1527C47.4591 48.9839 45.8778 48.4614 44.3634 47.9913C39.3352 46.431 35.5619 46.6259 31.1914 48.6723C28.4821 49.9408 27.379 50.2131 24.9519 50.2131C22.4928 50.2131 21.337 49.9292 18.7168 48.6816C15.1836 46.9996 11.2452 46.4929 8.01845 47.3055Z" fill="#455A64"/>
</svg>
