<svg width="72" height="69" viewBox="0 0 72 69" fill="none" xmlns="http://www.w3.org/2000/svg">
<line x1="30.5653" y1="50.8827" x2="25.3911" y2="59.8448" stroke="#6E97D2" stroke-width="3.5" stroke-linecap="round"/>
<line x1="40.5722" y1="53.1945" x2="35.3979" y2="62.1565" stroke="#6E97D2" stroke-width="3.5" stroke-linecap="round"/>
<line x1="34.8193" y1="53.3383" x2="26.9077" y2="67.0415" stroke="#6E97D2" stroke-width="3.5" stroke-linecap="round"/>
<path fill-rule="evenodd" clip-rule="evenodd" d="M51.8162 54.1288H27.5303V54.1264C27.399 54.1283 27.2674 54.1292 27.1357 54.1292C12.224 54.1292 0.135742 42.0409 0.135742 27.1293C0.135742 12.2177 12.224 0.129395 27.1357 0.129395C37.868 0.129395 47.1378 6.39122 51.4909 15.4607C51.6564 15.4565 51.8224 15.4544 51.9889 15.4544C62.6688 15.4544 71.3265 24.1121 71.3265 34.792C71.3265 45.1786 63.1377 53.6527 52.8639 54.1102V54.1288H52.1616C52.1041 54.1293 52.0465 54.1296 51.9889 54.1296C51.9313 54.1296 51.8737 54.1293 51.8162 54.1288Z" fill="#C4C4C4"/>
</svg>
