<svg width="72" height="69" viewBox="0 0 72 69" fill="none" xmlns="http://www.w3.org/2000/svg">
<line x1="30.5653" y1="50.8827" x2="25.3911" y2="59.8448" stroke="#6E97D2" stroke-width="3.5" stroke-linecap="round"/>
<line x1="40.5722" y1="53.1945" x2="35.3979" y2="62.1565" stroke="#6E97D2" stroke-width="3.5" stroke-linecap="round"/>
<line x1="34.8193" y1="53.3383" x2="26.9077" y2="67.0415" stroke="#6E97D2" stroke-width="3.5" stroke-linecap="round"/>
<path fill-rule="evenodd" clip-rule="evenodd" d="M51.8162 54.1288H27.5303V54.1264C27.399 54.1283 27.2674 54.1292 27.1357 54.1292C12.224 54.1292 0.135742 42.0409 0.135742 27.1293C0.135742 12.2177 12.224 0.129395 27.1357 0.129395C37.868 0.129395 47.1378 6.39122 51.4909 15.4607C51.6564 15.4565 51.8224 15.4544 51.9889 15.4544C62.6688 15.4544 71.3265 24.1121 71.3265 34.792C71.3265 45.1786 63.1377 53.6527 52.8639 54.1102V54.1288H52.1616C52.1041 54.1293 52.0465 54.1296 51.9889 54.1296C51.9313 54.1296 51.8737 54.1293 51.8162 54.1288Z" fill="#C4C4C4"/>
<path fill-rule="evenodd" clip-rule="evenodd" d="M57.1669 27.1496C57.0728 27.1741 56.6914 27.5571 56.3193 28.001C55.9474 28.4447 55.0093 29.5624 54.2347 30.4847C53.4602 31.4069 51.4856 33.765 49.8469 35.7248C47.0124 39.1146 46.0148 40.3044 41.9388 45.1571C40.9704 46.3099 40.1083 47.4159 40.023 47.6149C39.8056 48.1218 39.9827 48.6741 40.4858 49.0583L40.867 49.3492L43.8624 49.4053C45.6818 49.4392 46.9605 49.5064 47.1197 49.5763C47.5309 49.7569 47.9472 50.2317 48.016 50.5989C48.0617 50.8424 47.5618 52.951 46.1889 58.3052C44.7298 63.9955 44.3232 65.7217 44.4057 65.8758C44.5388 66.1246 44.9294 66.2799 45.2264 66.2022C45.3561 66.1683 46.8684 64.4492 48.793 62.1479C50.6307 59.9505 54.1716 55.7238 56.6617 52.7553C62.2154 46.1344 62.3857 45.9228 62.4699 45.5397C62.5634 45.1142 62.3102 44.5605 61.8826 44.2557C61.5355 44.008 61.4849 44.0034 58.5433 43.9482C56.678 43.9133 55.4545 43.8478 55.285 43.7739C54.957 43.6307 54.4783 43.0817 54.3961 42.7544C54.3241 42.4674 54.373 42.267 57.3018 30.8654C58.1222 27.6712 58.1406 27.5728 57.9516 27.3917C57.7313 27.1805 57.4192 27.0842 57.1669 27.1496Z" fill="#FF8A00"/>
</svg>
